<svg xmlns="http://www.w3.org/2000/svg" viewBox="0 0 200 132" role="img" aria-label="Angel&#39;s Lash Studio mark">
  <g fill="none" stroke="#1a1510" stroke-width="4.4" stroke-linecap="round" stroke-linejoin="round">
    <path d="M30 82 Q100 104 170 82" stroke-width="3"></path>
    <path d="M100 78 C100 54 100 46 100 32"></path>
    <path d="M86 79 C84 56 82 48 79 36"></path>
    <path d="M114 79 C116 56 118 48 121 36"></path>
    <path d="M71 81 C67 61 61 53 54 44"></path>
    <path d="M129 81 C133 61 139 53 146 44"></path>
    <path d="M56 85 C50 71 41 65 32 59"></path>
    <path d="M144 85 C150 71 159 65 168 59"></path>
  </g>
</svg>